<?xml version="1.0" encoding="utf-8"?>
<!-- Generator: Adobe Illustrator 18.0.0, SVG Export Plug-In . SVG Version: 6.00 Build 0)  -->
<!DOCTYPE svg PUBLIC "-//W3C//DTD SVG 1.1//EN" "http://www.w3.org/Graphics/SVG/1.1/DTD/svg11.dtd">
<svg version="1.1" id="Arrow_1_" xmlns="http://www.w3.org/2000/svg" xmlns:xlink="http://www.w3.org/1999/xlink" x="0px" y="0px"
	 width="500px" height="500px" viewBox="0 0 500 500" enable-background="new 0 0 500 500" xml:space="preserve">
  <metadata>
    <?xpacket begin="﻿" id="W5M0MpCehiHzreSzNTczkc9d"?>
    <x:xmpmeta xmlns:x="adobe:ns:meta/" x:xmptk="Adobe XMP Core 5.6-c011 79.156380, 2014/06/19-23:40:37        ">
     <rdf:RDF xmlns:rdf="http://www.w3.org/1999/02/22-rdf-syntax-ns#">
      <rdf:Description rdf:about=""
        xmlns:xmpMM="http://ns.adobe.com/xap/1.0/mm/"
        xmlns:stEvt="http://ns.adobe.com/xap/1.0/sType/ResourceEvent#"
        xmlns:xmp="http://ns.adobe.com/xap/1.0/"
        xmlns:xmpRights="http://ns.adobe.com/xap/1.0/rights/"
        xmlns:dc="http://purl.org/dc/elements/1.1/"
       xmpMM:DocumentID="xmp.did:58cdda6717ec516eb2793d516c923e64"
       xmpMM:OriginalDocumentID="xmp.did:58cdda6717ec516eb2793d516c923e64"
       xmpMM:InstanceID="xmp.iid:58cdda6717ec516eb2793d516c923e64"
       xmp:ModifyDate="2015-04-21T12:34:32+02:00"
       xmp:MetadataDate="2015-04-21T12:34:32+02:00"
       xmpRights:Marked="True"
       xmpRights:WebStatement="http://www.adobe.com/legal/general-terms.html">
       <xmpMM:History>
        <rdf:Seq>
         <rdf:li
          stEvt:action="saved"
          stEvt:instanceID="xmp.iid:58cdda6717ec516eb2793d516c923e64"
          stEvt:when="2015-04-21T12:34:32+02:00"/>
        </rdf:Seq>
       </xmpMM:History>
       <xmpRights:UsageTerms>
        <rdf:Alt>
         <rdf:li xml:lang="x-default">This work is licensed under the Adobe General Terms of Use http://www.adobe.com/legal/general-terms.html.</rdf:li>
        </rdf:Alt>
       </xmpRights:UsageTerms>
       <dc:publisher>
        <rdf:Bag>
         <rdf:li>Adobe Systems Incorporated</rdf:li>
        </rdf:Bag>
       </dc:publisher>
      </rdf:Description>
     </rdf:RDF>
    </x:xmpmeta>
    <?xpacket end="r"?>
  </metadata>
<g id="_x39_73-user-selected_x40_2x.png">
	<g>
		<path d="M333.5,313c-15.1-6.6-24.1-15.2-26.7-25.8c-4.6-19.1,12.1-39.9,12-39.9c1.2-1.3,29.4-30.2,29.4-95.6
			C348.2,102,338,35.7,250,35.7c-88,0-98.2,66.2-98.2,116.1c0,65.4,28.2,94.4,28.8,95c0.2,0.2,17.2,21.3,12.6,40.4
			c-2.5,10.6-11.5,19.2-26.7,25.8C63.8,344.7,0,382.1,0,410.7v35.7c0,11.6,9.2,17.9,17.9,17.9h464.3c8.7,0,17.9-6.3,17.9-17.9v-35.7
			C500,382.1,436.2,344.7,333.5,313z"/>
	</g>
</g>
</svg>
